<?xml version="1.0" encoding="UTF-8" standalone="no"?>
<svg
   width="48px"
   height="48px"
   id="svg1315"
   sodipodi:version="0.32"
   inkscape:version="1.1.1 (3bf5ae0d25, 2021-09-20)"
   sodipodi:docname="environment_logix.svg"
   version="1.1"
   xmlns:inkscape="http://www.inkscape.org/namespaces/inkscape"
   xmlns:sodipodi="http://sodipodi.sourceforge.net/DTD/sodipodi-0.dtd"
   xmlns="http://www.w3.org/2000/svg"
   xmlns:svg="http://www.w3.org/2000/svg"
   xmlns:rdf="http://www.w3.org/1999/02/22-rdf-syntax-ns#"
   xmlns:cc="http://creativecommons.org/ns#"
   xmlns:dc="http://purl.org/dc/elements/1.1/">
  <defs
     id="defs1317" />
  <sodipodi:namedview
     id="base"
     pagecolor="#ffffff"
     bordercolor="#666666"
     borderopacity="1.0"
     inkscape:pageopacity="0.0"
     inkscape:pageshadow="2"
     inkscape:zoom="5.6421227"
     inkscape:cx="28.180883"
     inkscape:cy="20.116542"
     inkscape:current-layer="layer1"
     showgrid="true"
     inkscape:grid-bbox="true"
     inkscape:document-units="px"
     inkscape:window-width="1366"
     inkscape:window-height="697"
     inkscape:window-x="-8"
     inkscape:window-y="-8"
     inkscape:grid-points="true"
     inkscape:document-rotation="0"
     inkscape:window-maximized="1"
     inkscape:pagecheckerboard="0" />
  <metadata
     id="metadata1320">
    <rdf:RDF>
      <cc:Work
         rdf:about="">
        <dc:format>image/svg+xml</dc:format>
        <dc:type
           rdf:resource="http://purl.org/dc/dcmitype/StillImage" />
        <dc:title />
        <dc:subject>
          <rdf:Bag>
            <rdf:li>server</rdf:li>
            <rdf:li>network</rdf:li>
            <rdf:li>remote</rdf:li>
            <rdf:li>resource</rdf:li>
          </rdf:Bag>
        </dc:subject>
        <dc:description>A remote server or resource icon</dc:description>
        <cc:license
           rdf:resource="http://creativecommons.org/licenses/LGPL/2.1/" />
      </cc:Work>
      <cc:License
         rdf:about="http://creativecommons.org/licenses/LGPL/2.1/">
        <cc:permits
           rdf:resource="http://web.resource.org/cc/Reproduction" />
        <cc:permits
           rdf:resource="http://web.resource.org/cc/Distribution" />
        <cc:requires
           rdf:resource="http://web.resource.org/cc/Notice" />
        <cc:permits
           rdf:resource="http://web.resource.org/cc/DerivativeWorks" />
        <cc:requires
           rdf:resource="http://web.resource.org/cc/ShareAlike" />
        <cc:requires
           rdf:resource="http://web.resource.org/cc/SourceCode" />
      </cc:License>
    </rdf:RDF>
  </metadata>
  <g
     id="layer1"
     inkscape:label="Layer 1"
     inkscape:groupmode="layer">
    <path
       d="M 46.084078,14.644157 C 43.553412,8.7441571 39.25302,4.4532543 33.303765,1.9159218 30.330275,0.64776469 27.241411,0 23.986823,0 20.732863,0 17.640627,0.64164657 14.670431,1.9159218 8.7705093,4.44651 4.4247057,8.7346668 1.8895687,14.644157 0.61921594,17.604784 0,20.70651 0,23.96047 c 0,3.254588 0.61921594,6.38204 1.8895687,9.343295 2.535137,5.90949 6.8808628,10.223372 12.7808623,12.754588 2.970196,1.274274 6.062353,1.915294 9.316392,1.915294 3.254588,0 6.343452,-0.647765 9.316942,-1.915294 C 39.253098,43.520941 43.55349,39.203216 46.084078,33.303765 47.358353,30.33302 48,27.215058 48,23.96047 48,20.70651 47.358353,17.614823 46.084078,14.644157 Z M 16.008549,4.4616469 C 13.935295,7.085804 12.413569,10.418745 11.442196,14.460471 H 5.1699609 C 7.4793722,9.9725493 11.363844,6.3770194 16.008549,4.4616469 Z M 2.9130197,23.96047 c 0,-2.283137 0.3672938,-4.487371 1.0760784,-6.613254 h 6.8758439 c -0.341021,2.230509 -0.498824,4.435373 -0.498824,6.613254 0,2.152157 0.157882,4.330746 0.498824,6.561255 H 3.9364706 C 3.2540391,28.395843 2.9130197,26.191607 2.9130197,23.96047 Z m 2.2569412,9.448001 h 6.2723141 c 0.971373,4.120078 2.493176,7.505647 4.566352,10.104078 C 11.284863,41.544 7.4004703,37.948549 5.1699609,33.408471 Z M 22.517177,44.824393 C 20.811216,44.32604 19.210509,43.066353 17.767216,41.019451 16.323843,38.972 15.22149,36.426746 14.460549,33.408471 h 8.056628 z m 0,-14.302668 h -8.712863 c -0.341491,-2.335843 -0.525177,-4.514353 -0.525177,-6.561255 0,-2.204235 0.183608,-4.409019 0.577804,-6.613254 h 8.660157 v 13.174509 z m 0,-16.061176 h -8.056628 c 0.813491,-2.992 1.92204,-5.5069805 3.359295,-7.5320781 1.449489,-2.0429812 2.991451,-3.3066675 4.69741,-3.7792162 V 14.460549 Z m 20.312941,0 H 36.557725 C 35.586902,10.418745 34.064628,7.085804 31.991373,4.4617256 36.636706,6.3770194 40.520628,9.9725493 42.830118,14.460549 Z M 25.482823,3.1492547 c 1.705961,0.4725487 3.247844,1.736235 4.697412,3.7792162 1.437726,2.0250976 2.545726,4.5400781 3.359216,7.5320781 h -8.056628 z m 0,14.1979613 h 8.660157 c 0.394118,2.204235 0.577804,4.409019 0.577804,6.613254 0,2.046981 -0.183686,4.225412 -0.525177,6.561255 h -8.712784 z m 0,27.477177 V 33.408471 h 8.056628 c -0.787137,3.018275 -1.904079,5.553411 -3.332942,7.61098 -1.432156,2.062588 -2.991451,3.332941 -4.723686,3.804942 z m 6.508628,-1.311844 c 2.073254,-2.598431 3.595529,-5.984 4.566353,-10.104078 h 6.272393 C 40.599608,37.948549 36.715059,41.544 31.991451,43.512549 Z M 44.063529,30.521725 h -6.92847 c 0.34149,-2.230588 0.498823,-4.409098 0.498823,-6.561255 0,-2.177881 -0.157333,-4.382666 -0.498823,-6.613254 h 6.875843 c 0.708784,2.125804 1.076078,4.330038 1.076078,6.613254 -7.8e-5,2.231137 -0.34094,4.435373 -1.023451,6.561255 z"
       fill="#006600"
       id="path2"
       style="fill:#60e500;fill-opacity:1;stroke-width:0.0784314" />
    <g
       id="g947"
       transform="matrix(0.5,0,0,0.5,24,23.5)">
      <rect
         ry="3.21682"
         y="5"
         x="12"
         height="39"
         width="24"
         id="rect2179"
         style="fill:#ffffff;fill-opacity:1;fill-rule:evenodd;stroke:#ffffff;stroke-width:8;stroke-linecap:butt;stroke-linejoin:miter;stroke-miterlimit:4;stroke-dasharray:none;stroke-opacity:1" />
      <path
         style="fill:none;fill-opacity:0.75;fill-rule:evenodd;stroke:#ffffff;stroke-width:12;stroke-linecap:round;stroke-linejoin:miter;stroke-miterlimit:4;stroke-dasharray:none;stroke-opacity:1"
         d="m 6,32 h 6"
         id="path6567"
         sodipodi:nodetypes="cc" />
      <path
         id="path7442"
         d="m 36,32 h 6"
         style="fill:none;fill-opacity:0.75;fill-rule:evenodd;stroke:#ffffff;stroke-width:12;stroke-linecap:round;stroke-linejoin:miter;stroke-miterlimit:4;stroke-dasharray:none;stroke-opacity:1"
         sodipodi:nodetypes="cc" />
      <rect
         style="fill:#000000;fill-opacity:1;fill-rule:evenodd;stroke:none;stroke-width:1px;stroke-linecap:butt;stroke-linejoin:miter;stroke-opacity:1"
         id="rect2198"
         width="24"
         height="39"
         x="12"
         y="5"
         ry="3.21682" />
      <rect
         style="fill:#ff0000;fill-opacity:1;fill-rule:evenodd;stroke:none;stroke-width:1px;stroke-linecap:butt;stroke-linejoin:miter;stroke-opacity:1"
         id="rect3054"
         width="16"
         height="31"
         x="16"
         y="9"
         ry="1.2614981" />
      <path
         style="fill:none;fill-opacity:0.75;fill-rule:evenodd;stroke:#000000;stroke-width:4;stroke-linecap:butt;stroke-linejoin:miter;stroke-miterlimit:4;stroke-dasharray:none;stroke-opacity:1"
         d="M 18,13 H 30"
         id="path3929" />
      <path
         id="path4804"
         d="M 18,19 H 30"
         style="fill:none;fill-opacity:0.75;fill-rule:evenodd;stroke:#000000;stroke-width:4;stroke-linecap:butt;stroke-linejoin:miter;stroke-miterlimit:4;stroke-dasharray:none;stroke-opacity:1" />
      <path
         style="fill:none;fill-opacity:0.75;fill-rule:evenodd;stroke:#000000;stroke-width:4;stroke-linecap:butt;stroke-linejoin:miter;stroke-miterlimit:4;stroke-dasharray:none;stroke-opacity:1"
         d="M 18,25 H 30"
         id="path4806" />
      <path
         style="fill:none;fill-opacity:0.75;fill-rule:evenodd;stroke:#000000;stroke-width:4;stroke-linecap:round;stroke-linejoin:miter;stroke-miterlimit:4;stroke-dasharray:none;stroke-opacity:1"
         d="m 36,32 h 6"
         id="path5690"
         sodipodi:nodetypes="cc" />
      <path
         id="path6565"
         d="m 6,32 h 6"
         style="fill:none;fill-opacity:0.75;fill-rule:evenodd;stroke:#000000;stroke-width:4;stroke-linecap:round;stroke-linejoin:miter;stroke-miterlimit:4;stroke-dasharray:none;stroke-opacity:1"
         sodipodi:nodetypes="cc" />
    </g>
  </g>
</svg>
