<?xml version="1.0" encoding="UTF-8" standalone="no"?>
<svg
   width="48px"
   height="48px"
   id="svg1315"
   sodipodi:version="0.32"
   inkscape:version="1.1.1 (3bf5ae0d25, 2021-09-20)"
   sodipodi:docname="environment_logix_connected.svg"
   version="1.1"
   xmlns:inkscape="http://www.inkscape.org/namespaces/inkscape"
   xmlns:sodipodi="http://sodipodi.sourceforge.net/DTD/sodipodi-0.dtd"
   xmlns="http://www.w3.org/2000/svg"
   xmlns:svg="http://www.w3.org/2000/svg"
   xmlns:rdf="http://www.w3.org/1999/02/22-rdf-syntax-ns#"
   xmlns:cc="http://creativecommons.org/ns#"
   xmlns:dc="http://purl.org/dc/elements/1.1/">
  <defs
     id="defs1317" />
  <sodipodi:namedview
     id="base"
     pagecolor="#ffffff"
     bordercolor="#666666"
     borderopacity="1.0"
     inkscape:pageopacity="0.0"
     inkscape:pageshadow="2"
     inkscape:zoom="5.6421227"
     inkscape:cx="28.180883"
     inkscape:cy="20.116542"
     inkscape:current-layer="g1431"
     showgrid="true"
     inkscape:grid-bbox="true"
     inkscape:document-units="px"
     inkscape:window-width="1366"
     inkscape:window-height="697"
     inkscape:window-x="-8"
     inkscape:window-y="-8"
     inkscape:grid-points="true"
     inkscape:document-rotation="0"
     inkscape:window-maximized="1"
     inkscape:pagecheckerboard="0" />
  <metadata
     id="metadata1320">
    <rdf:RDF>
      <cc:Work
         rdf:about="">
        <dc:format>image/svg+xml</dc:format>
        <dc:type
           rdf:resource="http://purl.org/dc/dcmitype/StillImage" />
        <dc:title />
        <dc:subject>
          <rdf:Bag>
            <rdf:li>server</rdf:li>
            <rdf:li>network</rdf:li>
            <rdf:li>remote</rdf:li>
            <rdf:li>resource</rdf:li>
          </rdf:Bag>
        </dc:subject>
        <dc:description>A remote server or resource icon</dc:description>
        <cc:license
           rdf:resource="http://creativecommons.org/licenses/LGPL/2.1/" />
      </cc:Work>
      <cc:License
         rdf:about="http://creativecommons.org/licenses/LGPL/2.1/">
        <cc:permits
           rdf:resource="http://web.resource.org/cc/Reproduction" />
        <cc:permits
           rdf:resource="http://web.resource.org/cc/Distribution" />
        <cc:requires
           rdf:resource="http://web.resource.org/cc/Notice" />
        <cc:permits
           rdf:resource="http://web.resource.org/cc/DerivativeWorks" />
        <cc:requires
           rdf:resource="http://web.resource.org/cc/ShareAlike" />
        <cc:requires
           rdf:resource="http://web.resource.org/cc/SourceCode" />
      </cc:License>
    </rdf:RDF>
  </metadata>
  <g
     id="layer1"
     inkscape:label="Layer 1"
     inkscape:groupmode="layer">
    <g
       id="g934"
       transform="matrix(0.09375,0,0,0.0938015,21.175266,18.945935)">
      <path
         d="M 265.694,-45.774681 C 238.70023,-108.70801 192.82938,-154.47764 129.37066,-181.54252 c -31.717231,-13.52701 -64.6651,-20.4365 -99.380708,-20.4365 -34.7089153,0 -67.692759,6.84423 -99.37485,20.4365 -62.932502,26.99294 -109.287742,72.73328 -136.329202,135.767839 -13.55043,31.580027 -20.1554,64.665099 -20.1554,99.374014 0,34.715608 6.60497,68.075087 20.1554,99.661807 27.04146,63.03456 73.39587,109.0493 136.329202,136.04894 31.682091,13.59226 64.6650981,20.4298 99.37485,20.4298 34.715608,0 67.663477,-6.90949 99.380708,-20.4298 63.45955,-27.06573 109.3304,-73.12147 136.32334,-136.04894 13.59227,-31.68795 20.4365,-64.946199 20.4365,-99.661807 0,-34.708915 -6.84423,-67.686902 -20.4365,-99.374014 z M -55.111643,-154.38812 c -22.114719,27.99101 -38.346458,63.54238 -48.707767,106.654119 h -66.90384 c 24.63372,-47.871163 66.06808,-86.223479 115.611607,-106.654119 z M -194.79729,53.599333 c 0,-24.353464 3.9178,-47.8653075 11.47817,-70.541386 h 73.34233 c -3.63755,23.7921046 -5.32079,47.310641 -5.32079,70.541386 0,22.95634 1.68408,46.194614 5.32079,69.986717 h -73.90369 c -7.27927,-22.67608 -10.91681,-46.18792 -10.91681,-69.986717 z M -170.72325,154.378 h 66.90468 c 10.361306,43.9475 26.593881,80.06024 48.707763,107.77684 C -105.49763,241.15698 -146.93115,202.8055 -170.72325,154.378 Z M 14.313716,276.14783 C -3.8831986,270.83207 -20.957395,257.39541 -36.352532,235.56179 -51.748506,213.72231 -63.506937,186.57293 -71.623643,154.378 h 85.937359 z m 0,-152.56178 h -92.937202 c -3.642563,-24.915658 -5.601883,-48.153096 -5.601883,-69.986717 0,-23.511843 1.958484,-47.0295428 6.163242,-70.541386 H 14.31288 V 123.58605 Z m 0,-171.319214 h -85.937359 c 8.677229,-31.914667 20.501751,-58.741126 35.83247,-80.342166 15.461229,-21.7918 31.908811,-35.27112 50.105726,-40.31164 v 120.653806 z m 216.671374,0 h -66.90552 c -10.35545,-43.112576 -26.59304,-78.663946 -48.70776,-106.654116 49.55022,20.4298 90.97872,58.782116 115.61328,106.654116 z M 45.947285,-168.38697 c 18.196915,5.04052 34.64366,18.51984 50.105726,40.31164 15.335739,21.60104 27.154409,48.427499 35.831629,80.342166 H 45.947285 Z m 0,151.444917 h 92.375005 c 4.20392,23.5118432 6.16324,47.029543 6.16324,70.541386 0,21.834457 -1.95932,45.071059 -5.60188,69.986717 H 45.947285 Z m 0,293.089883 V 154.378 h 85.937355 c -8.39613,32.19493 -20.31017,59.23639 -35.551368,81.18379 -15.27634,22.00094 -31.90881,35.55137 -50.385987,40.58604 z m 69.425355,-13.99299 c 22.11472,-27.7166 38.35232,-63.82934 48.70777,-107.77684 h 66.90552 C 207.19299,202.8055 165.7578,241.15698 115.37264,262.15484 Z M 244.14148,123.58605 H 170.2378 c 3.64256,-23.792939 5.32078,-47.030377 5.32078,-69.986717 0,-23.230745 -1.67822,-46.7484448 -5.32078,-70.541386 h 73.34232 c 7.56037,22.6752419 11.47817,46.187085 11.47817,70.541386 -8.3e-4,23.798797 -3.6367,47.310637 -10.91681,69.986717 z"
         fill="#006600"
         id="path2"
         style="fill:#60e500;fill-opacity:1;stroke-width:0.836601" />
    </g>
    <g
       id="g1618"
       transform="translate(-3.9999994)">
      <g
         id="g1431"
         transform="translate(68.712597,16.587708)">
        <rect
           style="fill:#000000;fill-opacity:1;fill-rule:evenodd;stroke:none;stroke-width:1px;stroke-linecap:butt;stroke-linejoin:miter;stroke-opacity:1"
           id="rect2198"
           width="24"
           height="39"
           x="-40.712597"
           y="-12.087708"
           ry="3.21682" />
        <rect
           style="fill:#ff0000;fill-opacity:1;fill-rule:evenodd;stroke:none;stroke-width:1px;stroke-linecap:butt;stroke-linejoin:miter;stroke-opacity:1"
           id="rect3054"
           width="16"
           height="31"
           x="-36.712597"
           y="-8.0877085"
           ry="1.2614981" />
        <path
           style="fill:none;fill-opacity:0.75;fill-rule:evenodd;stroke:#000000;stroke-width:4;stroke-linecap:butt;stroke-linejoin:miter;stroke-miterlimit:4;stroke-dasharray:none;stroke-opacity:1"
           d="m -34.712598,-4.087708 h 12"
           id="path3929" />
        <path
           id="path4804"
           d="m -34.712598,1.912292 h 12"
           style="fill:none;fill-opacity:0.75;fill-rule:evenodd;stroke:#000000;stroke-width:4;stroke-linecap:butt;stroke-linejoin:miter;stroke-miterlimit:4;stroke-dasharray:none;stroke-opacity:1" />
        <path
           style="fill:none;fill-opacity:0.75;fill-rule:evenodd;stroke:#000000;stroke-width:4;stroke-linecap:butt;stroke-linejoin:miter;stroke-miterlimit:4;stroke-dasharray:none;stroke-opacity:1"
           d="m -34.712598,7.912292 h 12"
           id="path4806" />
      </g>
    </g>
  </g>
</svg>
