<svg version="1.1" id="Layer_1" xmlns="http://www.w3.org/2000/svg" xmlns:xlink="http://www.w3.org/1999/xlink" x="0px" y="0px"
	 width="100%" viewBox="0 0 192 192" enable-background="new 0 0 192 192" xml:space="preserve">
<path fill="#FDFEFE" opacity="1.000000" stroke="none" 
	d="
M193.000000,76.000000 
	C193.000000,89.687561 193.000000,103.375122 192.665314,117.234528 
	C191.888321,118.218216 191.306061,118.984810 191.026611,119.849289 
	C189.322174,125.121819 188.274368,130.701996 185.880554,135.632370 
	C182.822372,141.931168 179.036865,147.953888 174.967514,153.670410 
	C162.332047,171.420395 145.470398,183.314896 124.441956,189.308319 
	C122.131584,189.966782 120.139633,191.742477 118.000000,193.000000 
	C104.312439,193.000000 90.624878,193.000000 76.764259,192.670044 
	C73.978172,191.232513 71.456070,189.765182 68.736809,189.077850 
	C54.818832,185.559906 43.188076,177.939819 32.447769,168.855072 
	C24.037775,161.741455 17.675482,152.852859 12.121879,143.395645 
	C10.341831,140.364410 8.258968,137.395340 7.142435,134.115982 
	C5.252138,128.563980 4.031890,122.784561 2.453793,117.121979 
	C2.408354,116.958931 1.503913,117.035278 1.000000,117.000000 
	C1.000000,103.979103 1.000000,90.958214 1.337483,77.765961 
	C1.933152,77.386505 2.354746,77.223022 2.425521,76.963768 
	C4.016268,71.136749 4.932508,65.024857 7.299565,59.537678 
	C9.875479,53.566330 13.548738,48.011757 17.170475,42.559029 
	C27.038794,27.701729 40.572563,16.951826 56.492878,9.312879 
	C62.343822,6.505459 68.864418,5.105264 75.037659,2.943492 
	C75.822395,2.668687 76.352127,1.665657 77.000000,1.000001 
	C90.020897,1.000000 103.041786,1.000000 116.234039,1.337570 
	C117.219467,2.115541 117.985168,2.742805 118.854965,2.967970 
	C129.769531,5.793431 140.171616,9.771004 149.604019,16.090931 
	C162.212250,24.538740 172.540466,34.899128 180.142456,48.302971 
	C183.959625,55.033401 187.091736,61.739887 189.135803,69.133568 
	C189.815094,71.590683 191.678131,73.720535 193.000000,76.000000 
M28.118103,95.499969 
	C28.425825,111.121742 27.008226,126.816887 30.783340,142.277908 
	C32.133312,147.806717 34.936810,151.883713 39.495934,155.124725 
	C55.148140,166.251709 72.264343,174.262756 90.883911,178.802933 
	C95.071075,179.823944 99.942436,179.832947 104.119934,178.790085 
	C122.529175,174.194397 139.544449,166.378540 155.072693,155.354767 
	C159.953674,151.889694 163.059113,147.621872 164.179871,141.661591 
	C168.845734,116.848160 166.469788,91.847435 166.237808,66.914009 
	C166.193436,62.144245 164.801331,57.387600 164.037872,52.623806 
	C163.136780,47.001060 159.959152,42.995018 155.392715,39.756321 
	C139.730209,28.647833 122.631905,20.607300 103.998230,16.086136 
	C99.957802,15.105789 95.284767,15.043038 91.251595,16.010479 
	C72.275177,20.562363 54.860703,28.700583 38.988270,40.117123 
	C34.569416,43.295464 31.342390,47.287010 30.910419,52.750011 
	C29.811052,66.653328 29.027851,80.581650 28.118103,95.499969 
z"/>
<path fill="#032E35" opacity="1.000000" stroke="none" 
	d="
M28.118105,94.999969 
	C29.027851,80.581650 29.811052,66.653328 30.910419,52.750011 
	C31.342390,47.287010 34.569416,43.295464 38.988270,40.117123 
	C54.860703,28.700583 72.275177,20.562363 91.251595,16.010479 
	C95.284767,15.043038 99.957802,15.105789 103.998230,16.086136 
	C122.631905,20.607300 139.730209,28.647833 155.392715,39.756321 
	C159.959152,42.995018 163.136780,47.001060 164.037872,52.623806 
	C164.801331,57.387600 166.193436,62.144245 166.237808,66.914009 
	C166.469788,91.847435 168.845734,116.848160 164.179871,141.661591 
	C163.059113,147.621872 159.953674,151.889694 155.072693,155.354767 
	C139.544449,166.378540 122.529175,174.194397 104.119934,178.790085 
	C99.942436,179.832947 95.071075,179.823944 90.883911,178.802933 
	C72.264343,174.262756 55.148140,166.251709 39.495934,155.124725 
	C34.936810,151.883713 32.133312,147.806717 30.783340,142.277908 
	C27.008226,126.816887 28.425825,111.121742 28.118105,94.999969 
M159.210281,104.550873 
	C163.306366,97.457474 162.227417,91.738052 155.559097,86.757187 
	C139.763962,74.959076 122.174240,66.838776 103.074165,62.164486 
	C99.357262,61.254860 95.019463,61.324753 91.297356,62.257236 
	C72.888763,66.869064 55.888088,74.703461 40.482899,85.866447 
	C30.696413,92.957985 30.661631,101.858467 40.388783,108.944305 
	C52.857197,118.027039 66.640678,124.445816 81.067833,129.816086 
	C92.073456,133.912750 102.539291,134.096497 113.566322,129.895203 
	C129.820023,123.702499 145.569046,116.793930 159.210281,104.550873 
z"/>
<path fill="#FDFDFD" opacity="1.000000" stroke="none" 
	d="
M159.002258,104.854111 
	C145.569046,116.793930 129.820023,123.702499 113.566322,129.895203 
	C102.539291,134.096497 92.073456,133.912750 81.067833,129.816086 
	C66.640678,124.445816 52.857197,118.027039 40.388783,108.944305 
	C30.661631,101.858467 30.696413,92.957985 40.482899,85.866447 
	C55.888088,74.703461 72.888763,66.869064 91.297356,62.257236 
	C95.019463,61.324753 99.357262,61.254860 103.074165,62.164486 
	C122.174240,66.838776 139.763962,74.959076 155.559097,86.757187 
	C162.227417,91.738052 163.306366,97.457474 159.002258,104.854111 
z"/>
</svg>