<?xml version="1.0" encoding="UTF-8" standalone="no"?>
<svg
   width="48"
   height="48"
   version="1.1"
   id="svg34"
   sodipodi:docname="totvstec_server.svg"
   inkscape:version="1.1.1 (3bf5ae0d25, 2021-09-20)"
   xmlns:inkscape="http://www.inkscape.org/namespaces/inkscape"
   xmlns:sodipodi="http://sodipodi.sourceforge.net/DTD/sodipodi-0.dtd"
   xmlns="http://www.w3.org/2000/svg"
   xmlns:svg="http://www.w3.org/2000/svg">
  <defs
     id="defs38" />
  <sodipodi:namedview
     id="namedview36"
     pagecolor="#ffffff"
     bordercolor="#666666"
     borderopacity="1.0"
     inkscape:pageshadow="2"
     inkscape:pageopacity="0.0"
     inkscape:pagecheckerboard="0"
     showgrid="false"
     inkscape:zoom="7.5424723"
     inkscape:cx="26.781669"
     inkscape:cy="21.146912"
     inkscape:window-width="1366"
     inkscape:window-height="697"
     inkscape:window-x="-8"
     inkscape:window-y="-8"
     inkscape:window-maximized="1"
     inkscape:current-layer="g1575" />
  <g
     id="g1575"
     transform="translate(6,4.5818634)">
    <path
       style="fill:#cccccc;stroke:#fffff0;stroke-width:0.411797;stroke-opacity:1"
       d="m 2.5547851,36.053955 c 2.8364171,-8.20643 1.7749865,-7.295327 3.1631095,-10.273407 0.6660357,-1.42891 1.4756029,-2.699564 1.7990402,-2.82368 1.0238754,-0.392897 0.6390143,-0.91426 -0.8860958,-1.200374 -2.6477802,-0.496726 -2.2444057,-2.211951 0.5233193,-2.225233 2.0246169,-0.0097 1.9148555,-0.564398 -0.31402,-1.586916 -3.0895216,-1.417347 -2.5995768,-2.925862 0.9560172,-2.943517 1.3942406,-0.0069 1.4031042,-0.182755 0.087998,-1.745675 C 7.309708,12.572466 6.5637186,11.480193 6.226394,10.827882 5.6550251,9.7229757 5.6663324,9.6418607 6.3917121,9.6418607 c 0.4282483,0 1.2766513,0.3917423 1.885343,0.8705383 1.3750806,1.081638 1.9136989,0.687583 0.7699656,-0.5633153 C 8.5818984,9.4403797 7.9017038,8.4311187 7.5354792,7.7062807 6.7659107,6.18314 6.6422006,3.4649293 7.3424476,3.4649293 c 0.260056,0 1.4617763,1.0655214 2.6704884,2.3678201 2.649998,2.8551913 2.951086,2.1372423 0.768738,-1.833053 C 9.3768184,1.4438751 8.98107,-0.68404687 9.6997603,-1.8176924 c 0.2542834,-0.4010968 0.7303177,-0.01671 1.7849367,1.44128423 2.707178,3.74263037 5.67981,8.33368487 5.67981,8.77212987 0,0.248286 0.401603,0.338256 0.92654,0.207568 0.747574,-0.186117 1.338275,0.237866 3.058173,2.1950323 1.747913,1.989047 2.489191,2.514733 4.117957,2.920282 3.15302,0.785083 6.281384,2.497207 6.959743,3.809009 0.333834,0.645562 0.910221,1.173752 1.28086,1.173752 0.988158,0 4.163842,1.958655 4.650732,2.868418 0.646199,1.207433 0.497508,4.02774 -0.289492,5.490895 -0.659316,1.225775 -0.718887,1.253081 -0.852315,0.390708 -0.114341,-0.739039 -0.3353,-0.879025 -1.088921,-0.689879 -0.520006,0.130523 -1.729958,0.02605 -2.688782,-0.23213 -2.07234,-0.558024 -2.659827,-0.176303 -4.747319,3.084574 -1.857119,2.901011 -1.808559,6.189019 -0.535208,9.296142 0,0 -10.074314,6.988953 -25.4016899,-2.856138 z"
       id="path1081"
       sodipodi:nodetypes="cssscscssssssscssssssssssssssscc" />
  </g>
</svg>
